HIERARCHY
ROOT Hips
{
	OFFSET 0.00000 0.00000 0.00000
	CHANNELS 6 Xposition Yposition Zposition Zrotation Yrotation Xrotation 
	JOINT LHipJoint
	{
		OFFSET 0 0 0
		CHANNELS 3 Zrotation Yrotation Xrotation
		JOINT LeftHip
		{
			OFFSET 1.28858 -1.83292 1.03970
			CHANNELS 3 Zrotation Yrotation Xrotation
			JOINT LeftKnee
			{
				OFFSET 2.47846 -6.80952 0.00000
				CHANNELS 3 Zrotation Yrotation Xrotation
				JOINT LeftAnkle
				{
					OFFSET 2.75274 -7.56311 0.00000
					CHANNELS 3 Zrotation Yrotation Xrotation
					JOINT LeftToe
					{
						OFFSET 0.12848 -0.35301 1.68223
						CHANNELS 3 Zrotation Yrotation Xrotation
						End Site
						{
							OFFSET 0.00000 -0.00000 0.87311
						}
					}
				}
			}
		}
	}
	JOINT RHipJoint
	{
		OFFSET 0 0 0
		CHANNELS 3 Zrotation Yrotation Xrotation
		JOINT RightHip
		{
			OFFSET -1.31183 -1.83292 1.03970
			CHANNELS 3 Zrotation Yrotation Xrotation
			JOINT RightKnee
			{
				OFFSET -2.44740 -6.72417 0.00000
				CHANNELS 3 Zrotation Yrotation Xrotation
				JOINT RightAnkle
				{
					OFFSET -2.67343 -7.34519 0.00000
					CHANNELS 3 Zrotation Yrotation Xrotation
					JOINT RightToe
					{
						OFFSET -0.16914 -0.46471 1.77626
						CHANNELS 3 Zrotation Yrotation Xrotation
						End Site
						{
							OFFSET -0.00000 -0.00000 0.92777
						}
					}
				}
			}
		}
	}
	JOINT lowerback
	{
		OFFSET 0 0 0
		CHANNELS 3 Zrotation Yrotation Xrotation
		JOINT Chest
		{
			OFFSET 0.01249 2.14252 0.03842
			CHANNELS 3 Zrotation Yrotation Xrotation
			JOINT Chest2
			{
				OFFSET -0.02957 2.14199 -0.03751
				CHANNELS 3 Zrotation Yrotation Xrotation
				JOINT lowerneck
				{
					OFFSET 0 0 0
					CHANNELS 3 Zrotation Yrotation Xrotation
					JOINT Neck
					{
						OFFSET -0.01678 1.65709 -0.05476
						CHANNELS 3 Zrotation Yrotation Xrotation
						JOINT Head
						{
							OFFSET 0.07912 1.58331 -0.11843
							CHANNELS 3 Zrotation Yrotation Xrotation
							End Site
							{
								OFFSET 0.03298 1.73940 -0.04271
							}
						}
					}
				}
				JOINT LeftCollar
				{
					OFFSET 0 0 0
					CHANNELS 3 Zrotation Yrotation Xrotation
					JOINT LeftShoulder
					{
						OFFSET 3.39556 1.16496 0.08673
CHANNELS 3 Zrotation Xrotation Yrotation
						JOINT LeftElbow
						{
OFFSET 0 -5.239100 -0.000000
CHANNELS 3 Zrotation Xrotation Yrotation
							JOINT LeftWrist
							{
OFFSET 0 -3.314670 0.000000
CHANNELS 3 Zrotation Xrotation Yrotation
								JOINT lhand
								{
									OFFSET 0 0 0
CHANNELS 3 Zrotation Xrotation Yrotation
									JOINT LFingers
									{
OFFSET 0 -0.965900 0.000000
CHANNELS 3 Zrotation Xrotation Yrotation
										End Site
										{
OFFSET 0 -0.778730 0.000000
										}
									}
								}
								JOINT LThumb
								{
OFFSET 0 0.000000 0.000000
CHANNELS 3 Zrotation Xrotation Yrotation
									End Site
									{
OFFSET 0 -0.790620 0.790620
									}
								}
							}
						}
					}
				}
				JOINT RightCollar
				{
					OFFSET 0 0 0
					CHANNELS 3 Zrotation Yrotation Xrotation
					JOINT RightShoulder
					{
						OFFSET -3.27193 1.31331 0.33940
CHANNELS 3 Zrotation Xrotation Yrotation
						JOINT RightElbow
						{
OFFSET 0 -5.302520 0.000000
CHANNELS 3 Zrotation Xrotation Yrotation
							JOINT RightWrist
							{
OFFSET 0 -3.678750 0.000000
CHANNELS 3 Zrotation Xrotation Yrotation
								JOINT rhand
								{
									OFFSET 0 0 0
CHANNELS 3 Zrotation Xrotation Yrotation
									JOINT RFingers
									{
OFFSET 0 -0.594810 0.000000
CHANNELS 3 Zrotation Xrotation Yrotation
										End Site
										{
OFFSET 0 -0.479550 0.000000
										}
									}
								}
								JOINT RThumb
								{
OFFSET 0 0.000000 0.000000
CHANNELS 3 Zrotation Xrotation Yrotation
									End Site
									{
OFFSET 0 -0.486870 0.486870
									}
								}
							}
						}
					}
				}
			}
		}
	}
}
MOTION
Frames: 10
Frame Time: 0.008333333333333333
6.983100 18.088100 -11.938600 -1.059500 -5.641100 2.117600 0.000000 0.000000 0.000000 -7.075200 0.980700 -9.558700 4.013500 12.178300 36.365800 0.507700 -7.563700 -12.964900 0.059500 1.573300 4.327900 0.000000 0.000000 0.000000 22.932000 1.916200 5.434700 -0.000000 -0.028400 0.078100 -0.197000 -21.701100 -31.918300 -0.454800 -4.326500 11.997000 6.425900 -1.390100 -3.547000 3.188200 -2.226400 0.648700 -0.432500 -1.037800 2.547300 0.283600 -13.172700 5.158300 7.015400 -17.159700 -5.773300 2.695600 -8.772200 -2.087900 -0.000000 0.000000 0.000000 8.901100 2.556200 -37.792600 14.034200 -22.783600 2.841300 -4.190600 -7.456100 11.488100 0.000000 0.000000 0.000000 -7.125000 0.000000 0.000000 -21.595400 18.815400 -14.543100 -0.000000 0.000000 0.000000 -13.255600 8.737500 9.062600 -20.364200 -31.078700 -5.718200 -9.478900 16.729700 40.501600 0.000000 0.000000 0.000000 7.125000 0.000000 -0.000000 36.331300 67.520500 -20.748900
6.994401 18.080578 -11.996283 -1.372437 -4.925212 2.294296 0.000000 0.000000 0.000000 -6.871493 0.796170 -9.003217 4.152364 12.360222 37.018787 0.500365 -9.134405 -13.237806 0.062869 1.615349 4.443732 0.000000 0.000000 0.000000 23.217422 1.612127 4.932847 -0.000027 -0.039577 0.108758 -0.222593 -21.635654 -31.996881 -0.556961 -4.779987 13.282186 5.980184 -2.084402 -3.697718 3.747936 -3.141987 0.383216 0.343540 -1.512366 2.364655 -0.695647 -12.788533 5.487885 6.909631 -16.719196 -5.945614 2.836198 -8.537111 -2.147329 0.000000 0.000000 0.000000 7.934752 3.030572 -36.701739 14.086478 -22.858222 2.861590 -3.164326 -7.760535 11.823079 0.000000 0.000000 0.000000 -7.125000 0.000000 0.000000 -20.879439 18.500589 -14.143847 0.000000 0.000000 0.000000 -13.897981 9.547085 15.088106 -20.124102 -30.790751 -5.595063 0.094200 -2.957453 44.189831 0.000000 0.000000 0.000000 7.125000 0.000000 0.000000 52.002552 67.139108 -30.949418
7.010579 18.079021 -12.064802 -1.714194 -4.362511 2.312557 0.000000 0.000000 0.000000 -6.646833 0.624496 -8.224740 4.239293 12.472147 37.423487 0.467340 -10.671192 -13.349654 0.058622 1.561290 4.294660 0.000000 0.000000 0.000000 23.530849 1.532663 4.697253 0.000000 0.009869 -0.026967 -0.228659 -21.809209 -32.260456 -0.643571 -5.131206 14.283399 5.458857 -2.733745 -3.727079 4.400469 -3.993322 0.221317 1.263070 -1.952644 2.264653 -2.616389 -12.104627 6.126018 7.555330 -15.932818 -6.017293 3.373092 -8.137891 -2.111551 0.000000 0.000000 0.000000 6.649142 3.242753 -35.019455 14.004314 -22.740835 2.829762 -2.664406 -7.677838 12.462181 0.000000 0.000000 0.000000 -7.125000 0.000000 0.000000 -20.472966 17.898705 -14.122577 0.000000 0.000000 0.000000 -14.977043 9.793560 15.384120 -19.499407 -30.033960 -5.278757 -0.262720 -2.215062 44.013714 0.000000 0.000000 0.000000 7.125000 0.000000 0.000000 51.354530 67.140308 -30.483700
7.031251 18.074489 -12.134254 -2.004127 -3.974689 2.354594 0.000000 0.000000 0.000000 -6.499806 0.536724 -7.429472 4.271319 12.512903 37.571419 0.418423 -11.989144 -13.331758 0.081684 1.840853 5.066123 0.000000 0.000000 0.000000 23.703928 1.250999 4.250082 0.000000 -0.009595 0.026377 -0.239879 -21.694037 -32.181962 -0.717167 -5.411626 15.086439 5.070066 -3.196136 -3.714243 4.850399 -4.593917 0.076135 1.915763 -2.263934 2.164708 -3.823366 -11.694947 6.469038 7.814227 -15.484143 -6.071866 3.671930 -7.903745 -2.101889 0.000000 0.000000 0.000000 5.750584 3.381878 -33.858519 14.020925 -22.764587 2.836216 -2.135266 -7.672991 12.827975 0.000000 0.000000 0.000000 -7.125000 0.000000 0.000000 -20.083979 17.549997 -13.982575 0.000000 0.000000 0.000000 -15.638556 10.048394 15.633521 -18.828196 -29.204070 -4.946980 -0.015165 -2.914942 43.961307 0.000000 0.000000 0.000000 7.125000 0.000000 0.000000 51.479676 67.031359 -30.454647
7.056661 18.068910 -12.208607 -2.257602 -3.688621 2.407926 0.000000 0.000000 0.000000 -6.406967 0.432824 -6.611502 4.217944 12.444873 37.324355 0.380418 -12.788233 -13.287667 0.129554 2.319243 6.388929 0.000000 0.000000 0.000000 23.790079 0.890285 3.665928 -0.000188 -0.077102 0.211722 -0.244757 -21.462457 -31.914588 -0.767693 -5.594977 15.613697 4.813904 -3.415167 -3.708358 5.054977 -4.877417 0.028760 2.255221 -2.411020 2.151274 -4.381263 -11.555068 6.519908 7.916718 -15.344797 -6.096724 3.798064 -7.827399 -2.077014 0.000000 0.000000 0.000000 5.339135 3.259963 -33.353370 14.112816 -22.895817 2.871856 -1.779348 -7.683604 12.921303 0.000000 0.000000 0.000000 -7.125000 0.000000 0.000000 -19.840643 17.457796 -13.833085 0.000000 0.000000 0.000000 -15.747331 10.269433 14.934562 -18.109842 -28.297423 -4.601299 -0.211084 -2.677285 43.701035 0.000000 0.000000 0.000000 7.125000 0.000000 0.000000 50.826175 66.928614 -29.875720
7.084903 18.062845 -12.287014 -2.459368 -3.365042 2.470633 0.000000 0.000000 0.000000 -6.372756 0.214760 -5.816752 4.098506 12.290155 36.766650 0.377640 -13.015963 -13.361357 0.188406 2.792877 7.702823 0.000000 0.000000 0.000000 23.829463 0.586316 3.061609 -0.000602 -0.157028 0.431451 -0.234581 -21.324919 -31.671368 -0.793373 -5.685490 15.874575 4.599829 -3.479923 -3.744105 5.065768 -4.961027 0.066186 2.375908 -2.454315 2.229575 -4.483100 -11.607261 6.452480 8.000354 -15.415935 -6.177205 3.840298 -7.863380 -2.071872 0.000000 0.000000 0.000000 5.332567 2.926094 -33.468652 14.261185 -23.106784 2.929849 -1.483322 -7.845031 12.893986 0.000000 0.000000 0.000000 -7.125000 0.000000 0.000000 -19.649557 17.479093 -13.672138 0.000000 0.000000 0.000000 -15.413745 10.554822 13.732513 -17.450118 -27.446799 -4.293025 -0.339865 -2.385737 43.563033 0.000000 0.000000 0.000000 7.125000 0.000000 0.000000 50.459296 66.880928 -29.563793
7.115840 18.056815 -12.367727 -2.643727 -2.970933 2.511936 0.000000 0.000000 0.000000 -6.356663 -0.087266 -5.008229 3.942351 12.082979 36.026574 0.392599 -12.949146 -13.479993 0.249849 3.213759 8.874709 0.000000 0.000000 0.000000 23.873847 0.371844 2.550565 -0.001122 -0.215213 0.591351 -0.208938 -21.344142 -31.530219 -0.809699 -5.742446 16.038876 4.375220 -3.537427 -3.777389 5.027909 -5.035104 0.134842 2.451630 -2.492198 2.335645 -4.538930 -11.664773 6.498874 8.161127 -15.483843 -6.375376 3.917726 -7.903425 -2.124293 0.000000 0.000000 0.000000 5.421078 2.537987 -33.755182 14.424190 -23.337780 2.994097 -1.166468 -8.049130 12.911994 0.000000 0.000000 0.000000 -7.125000 0.000000 0.000000 -19.439612 17.457376 -13.516869 0.000000 0.000000 0.000000 -15.000795 10.925360 12.577731 -16.884664 -26.705007 -4.035638 -0.483560 -2.100996 43.712201 0.000000 0.000000 0.000000 7.125000 0.000000 0.000000 50.601248 67.019547 -29.813849
7.150308 18.050803 -12.450267 -2.817928 -2.563357 2.537051 0.000000 0.000000 0.000000 -6.357565 -0.398071 -4.174464 3.754703 11.826393 35.120945 0.402611 -12.758253 -13.495731 0.324748 3.662078 10.127975 0.000000 0.000000 0.000000 23.905364 0.179125 2.099636 -0.001514 -0.251235 0.690206 -0.172865 -21.433417 -31.411538 -0.828125 -5.805754 16.221797 4.130659 -3.603858 -3.757259 4.980261 -5.114827 0.196184 2.531634 -2.533898 2.405591 -4.593774 -11.694550 6.604753 8.319324 -15.515162 -6.597563 4.001350 -7.926100 -2.198575 0.000000 0.000000 0.000000 5.515747 2.187005 -34.095724 14.617033 -23.609897 3.070907 -0.769071 -8.239287 12.996388 0.000000 0.000000 0.000000 -7.125000 0.000000 0.000000 -19.169374 17.370956 -13.343912 0.000000 0.000000 0.000000 -14.602146 11.318966 11.505747 -16.336518 -25.974500 -3.792310 -0.737930 -1.728843 43.991750 0.000000 0.000000 0.000000 7.125000 0.000000 0.000000 50.888211 67.274387 -30.292958
7.187519 18.044995 -12.537099 -3.003647 -2.170090 2.588543 0.000000 0.000000 0.000000 -6.329314 -0.681474 -3.385534 3.532755 11.511045 34.023619 0.403421 -12.368472 -13.335938 0.395010 4.034960 11.175098 0.000000 0.000000 0.000000 23.952897 0.078417 1.676036 -0.001600 -0.256421 0.704489 -0.133404 -21.591961 -31.362496 -0.866350 -5.935013 16.595938 3.897131 -3.647945 -3.696582 4.916555 -5.161057 0.246964 2.593936 -2.559356 2.439159 -4.564906 -11.743926 6.599664 8.365117 -15.573087 -6.694805 4.017407 -7.957907 -2.224569 0.000000 0.000000 0.000000 5.653103 1.839907 -34.554278 14.859443 -23.949856 3.168638 -0.276351 -8.422320 13.107529 0.000000 0.000000 0.000000 -7.125000 0.000000 0.000000 -18.833539 17.256431 -13.131851 0.000000 0.000000 0.000000 -14.167410 11.641764 10.345556 -15.748484 -25.178240 -3.538434 -1.121066 -1.150614 44.248991 0.000000 0.000000 0.000000 7.125000 0.000000 0.000000 51.028217 67.554746 -30.695070
7.226009 18.039484 -12.629417 -3.192368 -1.768794 2.687022 0.000000 0.000000 0.000000 -6.256127 -0.944815 -2.681853 3.272854 11.123150 32.697466 0.371380 -11.745472 -12.740154 0.521603 4.623979 12.839948 0.000000 0.000000 0.000000 24.018252 0.135795 1.267505 -0.001278 -0.230757 0.633988 -0.084542 -21.887909 -31.437289 -0.906359 -6.066694 16.978033 3.674073 -3.673038 -3.631176 4.836021 -5.180616 0.282621 2.635693 -2.571522 2.451450 -4.504785 -11.817424 6.516476 8.303587 -15.670561 -6.640900 3.976952 -8.004570 -2.193903 0.000000 0.000000 0.000000 5.834162 1.498301 -35.116863 15.141579 -24.342801 3.284166 0.319666 -8.616084 13.319775 0.000000 0.000000 0.000000 -7.125000 0.000000 0.000000 -18.419957 17.042297 -12.901279 0.000000 0.000000 0.000000 -13.703436 11.927490 9.148345 -15.172507 -24.385368 -3.297084 -1.473345 -0.484395 44.414032 0.000000 0.000000 0.000000 7.125000 0.000000 0.000000 51.028006 67.768157 -30.923490
